<svg width="65.000000" height="65.000000" viewBox="0 0 65 65" fill="none" xmlns="http://www.w3.org/2000/svg" xmlns:xlink="http://www.w3.org/1999/xlink">
	<desc>
			Created with Pixso.
	</desc>
	<defs/>
	<rect rx="-0.500000" width="64.000000" height="64.000000" transform="translate(0.500000 0.500000)" fill="#FFFFFF" fill-opacity="0"/>
	<path d="M64.99 12.09C65.03 11 63.31 11 63.28 12.09C63.09 19.14 59.7 22.57 52.9 23.17C46.15 23.76 34.58 25.33 33.35 16.36C33.34 16.19 33.27 16.08 33.18 15.97C33.32 14.34 33.25 12.66 33.27 11.13C33.27 10.04 31.57 10.02 31.55 11.13C31.54 14.07 31.97 18.25 29.75 20.5C27.11 23.17 21.88 23.7 18.31 23.8C15.05 23.9 10.64 24.08 7.73 22.6C3.98 20.68 1.9 16.21 1.71 12.21C1.66 11.11 -0.05 11.1 0 12.21C0.2 16.23 1.85 19.99 4.89 22.62C6.17 26.61 6.56 30.73 7.52 34.78C8.37 38.41 9.72 41.79 10.12 45.53C10.46 48.67 10.71 51.99 10.46 55.15C10.21 58.21 9 61.12 8.63 64.18C8.49 65.27 10.21 65.26 10.34 64.18C10.73 60.99 12.01 57.99 12.19 54.76C12.38 51.35 12.14 47.83 11.72 44.45C11.35 41.47 10.34 38.72 9.57 35.82C8.52 31.97 8.1 28 7.11 24.15C10.44 25.8 14.78 25.63 18.33 25.53C22.45 25.39 27.9 24.77 30.98 21.73C31.65 21.05 32.13 20.3 32.48 19.46C35.59 26.71 46.59 25.55 53.56 24.86C55.36 24.67 56.9 24.28 58.27 23.71C57.11 26.71 56.77 29.85 56.15 33.08C55.46 36.71 53.98 40.16 53.44 43.83C52.93 47.28 52.75 50.86 52.87 54.32C53 57.71 54.28 60.85 54.67 64.18C54.8 65.26 56.5 65.27 56.38 64.18C56.05 61.25 54.94 58.48 54.63 55.55C54.3 52.29 54.6 48.79 54.94 45.54C55.31 42.08 56.5 38.95 57.32 35.59C58.43 31.1 58.42 26.5 60.74 22.37C60.77 22.3 60.79 22.23 60.81 22.16C63.48 20.01 64.88 16.65 64.99 12.09Z" fill="#2B3541" fill-opacity="1.000000" fill-rule="nonzero"/>
	<path d="M47.13 32.17C45.63 34.8 34.51 34.31 33.2 31.75C33.15 31.65 33.08 31.6 33.03 31.53C33.39 29.94 33.18 28 33.07 26.07C33 24.97 31.3 24.97 31.35 26.07C31.57 29.78 32.36 33.2 27.4 33.64C24.44 33.9 19.71 34.68 17.44 32.39C16.67 31.6 15.46 32.81 16.23 33.6C19.21 36.61 25.16 35.91 28.95 35.17C30.58 34.85 31.6 34.21 32.24 33.33C34.03 35.39 37.78 35.32 40.22 35.37C42.82 35.42 47.08 35.7 48.59 33.03C49.17 32.07 47.68 31.21 47.13 32.17Z" fill="#2B3541" fill-opacity="1.000000" fill-rule="nonzero"/>
	<path d="M31.1 44C30.46 45.04 28.78 45.44 27.68 45.51C24.84 45.7 20.2 46.1 20.03 42.16C19.98 41.07 18.28 41.05 18.31 42.16C18.4 43.98 18.7 45.65 20.48 46.47C22.71 47.51 25.33 47.36 27.68 47.21C29.4 47.11 31.35 47.16 32.34 45.49C32.34 45.48 32.36 45.46 32.36 45.46C32.63 45.85 33 46.17 33.52 46.44C35.47 47.41 38.11 47.28 40.23 47.33C43.68 47.43 46.12 45.97 46.64 42.35C46.79 41.27 45.15 40.8 44.99 41.89C44.57 44.82 42.84 45.7 40.23 45.61C37.47 45.54 34.13 45.98 33.07 42.8C33.07 42.8 33.07 42.8 33.07 42.79C33.15 41.64 33.1 40.48 33.03 39.52C32.97 38.43 31.27 38.41 31.32 39.52C31.37 40.4 31.4 41.24 31.32 42.11C31.3 42.63 31.35 43.59 31.1 44Z" fill="#2B3541" fill-opacity="1.000000" fill-rule="nonzero"/>
	<path d="M55.68 20.58C56.77 20.58 56.79 18.87 55.68 18.87C54.58 18.87 54.58 20.58 55.68 20.58Z" fill="#2B3541" fill-opacity="1.000000" fill-rule="nonzero"/>
	<path d="M9.45 20.58C10.54 20.58 10.56 18.87 9.45 18.87C8.36 18.87 8.36 20.58 9.45 20.58Z" fill="#2B3541" fill-opacity="1.000000" fill-rule="nonzero"/>
	<path d="M45.03 53.65C45.01 55.35 44.99 56.43 43.21 56.93C42.29 57.18 41.38 57.15 40.44 57.12C37.88 57.02 34.01 57.64 33.42 54.29C33.54 53.05 33.39 51.7 33.35 50.66C33.32 49.56 31.6 49.55 31.64 50.66C31.69 52.15 31.87 53.52 31.22 54.9C30.61 56.19 29.52 56.38 28.17 56.61C26.73 56.85 25.14 56.85 23.68 56.78C21.24 56.66 20.82 55.54 20.47 53.43C20.28 52.36 18.63 52.81 18.82 53.89C19.07 55.49 19.34 57.22 20.91 57.99C22.87 58.98 26.05 58.63 28.14 58.33C29.52 58.13 31.49 57.79 32.5 56.66C34.14 58.97 37.83 58.71 40.65 58.83C42.03 58.88 43.92 58.82 45.16 58.13C46.78 57.23 46.69 55.27 46.71 53.64C46.76 52.54 45.04 52.54 45.03 53.65Z" fill="#2B3541" fill-opacity="1.000000" fill-rule="nonzero"/>
	<path d="M16.08 1.98C20.47 1.98 24.25 1.48 27.82 4.4C28.66 5.09 29.89 3.9 29.03 3.19C25.01 -0.09 21.11 0.26 16.08 0.28C14.97 0.28 14.97 1.98 16.08 1.98Z" fill="#2B3541" fill-opacity="1.000000" fill-rule="nonzero"/>
	<path d="M36.92 4.4C39.85 1.26 44.93 1.86 48.9 1.71C49.99 1.68 50.01 -0.04 48.9 0C44.39 0.16 39.06 -0.41 35.71 3.17C34.97 4 36.18 5.21 36.92 4.4Z" fill="#2B3541" fill-opacity="1.000000" fill-rule="nonzero"/>
</svg>
