<svg width="42.000000" height="85.000000" viewBox="0 0 42 85" fill="none" xmlns="http://www.w3.org/2000/svg" xmlns:xlink="http://www.w3.org/1999/xlink">
	<desc>
			Created with Pixso.
	</desc>
	<defs/>
	<rect rx="-0.500000" width="41.000000" height="84.000000" transform="translate(0.500000 0.500000)" fill="#FFFFFF" fill-opacity="0"/>
	<path d="M41.8 58.71C41.61 56.13 41.8 54.55 40.24 52.56C39.27 51.37 38.3 50.78 37.71 49.19C35.77 44.83 38.49 43.64 40.24 40.66C41.41 38.68 41.41 36.49 41.41 34.11C41.22 30.35 41.41 26.18 40.63 22.61C40.05 19.83 38.69 18.84 36.15 18.24C35.77 18.24 35.38 18.05 34.99 18.05C35.18 15.27 35.38 11.1 32.85 9.52C31.09 8.92 28.76 8.72 26.42 8.72C26.42 7.73 26.42 6.94 26.23 5.95C27.39 5.55 28.37 4.95 28.17 3.76C27.98 0.59 23.7 0 21.36 0C19.41 0 17.66 0 15.91 1.38C14.94 2.18 13.38 3.57 13.77 5.15C13.96 6.14 14.94 6.54 16.1 6.74C16.1 7.53 16.1 8.52 16.3 9.32C13.96 9.12 11.43 9.12 9.68 10.11C6.76 11.7 7.34 15.67 7.54 18.44C5.4 18.64 3.06 19.04 1.89 21.22C0.53 23.8 0.92 28.16 1.11 30.94C1.31 34.71 0.72 37.88 2.87 41.06C4.03 42.84 5.59 44.03 5.4 46.41C5.4 48.99 3.84 50.58 2.28 52.56C0.92 54.55 0.53 56.13 0.34 58.51C-0.05 62.28 -0.05 66.25 0.14 70.02C0.14 73.59 -0.44 78.35 0.72 81.72C1.5 83.9 2.87 84.3 4.81 84.5C10.07 85.29 15.52 84.9 20.97 84.9C25.84 84.9 30.51 84.9 35.38 84.9C37.52 84.9 39.46 84.7 40.44 82.91C41.8 80.53 41.41 76.17 41.61 73.59C42.19 68.43 42 63.67 41.8 58.71ZM17.27 2.77C18.63 1.78 20 1.78 21.55 1.78C22.53 1.78 23.5 1.58 24.28 1.98C24.47 2.38 26.42 3.57 26.23 3.96C26.03 4.76 22.14 4.36 21.36 4.36C19.8 4.36 18.25 4.56 16.69 4.56C16.49 4.56 15.71 4.56 15.71 4.56C15.52 4.16 17.08 2.97 17.27 2.77ZM18.05 6.54C19.41 6.54 20.58 6.34 21.36 6.14C21.94 6.14 23.11 6.14 24.28 6.14C24.28 6.54 24.28 7.14 24.28 7.53C24.28 7.93 24.28 8.33 24.28 8.72C22.53 8.92 20.78 9.12 19.41 9.12C19.02 9.12 18.63 9.12 18.25 9.12C18.25 8.33 18.05 7.53 18.05 6.54ZM12.41 11.5C14.94 11.3 17.66 11.3 20.19 11.1C22.72 11.1 25.45 10.91 27.98 11.1C33.04 11.1 33.04 13.88 33.04 18.05C29.34 17.65 25.45 17.65 21.75 17.45C17.66 17.45 13.57 17.45 9.49 17.85C9.29 15.07 9.1 11.9 12.41 11.5ZM40.05 71.01C40.05 74.18 40.44 79.74 37.91 81.72C35.38 83.71 30.31 82.71 27.39 82.71C23.5 82.71 19.61 82.91 15.71 82.91C12.21 82.91 4.23 84.1 2.48 79.94C1.5 77.56 2.09 73.19 2.09 70.61C2.09 67.44 1.89 64.07 2.09 60.89C2.28 57.52 2.67 55.54 4.42 52.96C5.59 51.37 6.76 49.78 7.15 47.8C7.54 45.62 7.15 43.64 5.98 41.85C5.01 40.26 4.03 39.67 3.45 37.88C2.87 35.7 3.06 33.32 3.06 31.14C2.87 26.58 2.48 21.42 7.93 20.43C12.6 19.63 17.08 19.63 21.75 19.63C25.25 19.83 28.76 20.03 32.46 20.23C34.79 20.43 37.32 20.23 38.69 23.01C39.27 24.39 39.08 26.38 39.27 27.96C39.46 30.54 39.66 33.32 39.66 35.9C39.66 39.07 38.1 40.26 36.54 42.64C34.4 45.82 34.99 49.59 37.52 52.36C38.1 53.16 39.08 53.75 39.66 54.55C40.44 56.13 40.05 58.71 40.24 60.5C40.05 64.07 40.24 67.64 40.05 71.01Z" fill="#2B3541" fill-opacity="1.000000" fill-rule="nonzero"/>
	<path d="M14.16 44.23C19.02 44.63 23.89 44.63 28.76 44.03C29.93 43.83 29.93 42.05 28.76 42.05C23.89 42.64 19.02 42.64 14.16 42.25C12.99 42.25 12.99 44.03 14.16 44.23Z" fill="#2B3541" fill-opacity="1.000000" fill-rule="nonzero"/>
	<path d="M29.34 50.18C24.09 48.99 18.63 48.79 13.38 49.98C12.21 50.18 12.6 52.17 13.96 51.77C19.02 50.78 23.89 50.78 28.95 51.97C29.93 52.36 30.51 50.58 29.34 50.18Z" fill="#2B3541" fill-opacity="1.000000" fill-rule="nonzero"/>
	<path d="M6.76 24.2C4.42 26.18 5.2 29.35 5.2 32.13C5.2 33.32 7.15 33.32 7.15 32.13C7.15 30.15 6.37 26.97 8.12 25.58C9.1 24.79 7.73 23.4 6.76 24.2Z" fill="#2B3541" fill-opacity="1.000000" fill-rule="nonzero"/>
	<path d="M9.87 22.01C8.71 22.01 8.71 24 9.87 24C11.24 24 11.24 22.01 9.87 22.01Z" fill="#2B3541" fill-opacity="1.000000" fill-rule="nonzero"/>
</svg>
