<svg width="91.000000" height="50.000000" viewBox="0 0 91 50" fill="none" xmlns="http://www.w3.org/2000/svg" xmlns:xlink="http://www.w3.org/1999/xlink">
	<desc>
			Created with Pixso.
	</desc>
	<defs/>
	<rect rx="-0.500000" width="90.000000" height="49.000000" transform="translate(0.500000 0.500000)" fill="#FFFFFF" fill-opacity="0"/>
	<path d="M90.86 26.21C90.86 25.49 90.71 24.61 90.71 23.88C90.71 23.01 90.86 21.99 90.27 21.26C89.38 20.1 87.6 20.24 86.26 20.24C86.26 18.2 86.11 16.16 86.11 14.12C86.11 12.67 86.56 10.34 85.67 9.03C84.19 6.99 80.03 7.28 77.51 7.13C77.51 6.84 77.51 6.4 77.51 6.11C77.07 0.87 74.1 0 68.91 0C63.28 0 61.79 1.89 61.35 7.42C61.05 11.79 60.9 16.16 60.9 20.39C55.42 20.82 49.63 20.24 44.29 20.24C39.55 20.24 34.95 20.39 30.21 20.53C30.21 16.16 30.06 11.94 29.76 7.57C29.32 2.18 27.83 0.14 22.2 0.14C18.19 0.14 14.19 0.58 13.6 4.95C13.45 5.68 13.45 6.55 13.45 7.28C10.93 7.28 7.07 7.13 5.59 8.88C3.81 11.21 4.55 17.18 4.55 19.95C4.55 20.1 4.55 20.1 4.55 20.24C3.36 20.24 2.03 20.1 1.14 20.53C-0.49 21.26 0.1 24.03 0.1 25.49C0.1 26.94 -0.34 29.27 1.43 29.56C2.32 29.71 3.36 29.86 4.25 29.71C4.25 33.06 4.4 36.56 5.29 39.47C6.18 43.26 9.89 43.26 13.45 43.26C13.45 43.69 13.45 44.28 13.6 44.71C14.04 49.37 16.71 49.81 20.86 49.81C23.53 49.81 27.83 50.83 29.46 48.06C30.35 46.46 30.21 43.69 30.21 41.95C30.35 38.16 30.35 34.37 30.21 30.58C30.21 30.29 30.21 30 30.21 29.71C40.29 29.56 50.67 30.15 60.75 29.56C60.75 32.91 60.75 36.41 60.75 39.76C60.75 41.95 60.46 44.71 61.2 46.9C62.39 50.54 66.69 49.67 69.95 49.67C73.51 49.67 76.62 49.81 77.51 45.73C77.66 44.86 77.81 43.99 77.81 43.11C81.22 43.11 84.93 42.97 85.82 39.47C86.56 36.7 86.71 33.35 86.56 30.15C87.75 30.15 89.08 30.15 89.97 29.71C91.3 29.27 91.01 27.53 90.86 26.21ZM2.18 27.82C2.03 26.94 2.18 25.92 2.18 25.05C2.18 24.47 2.18 24.03 2.18 23.45C2.18 23.3 2.32 22.57 2.18 22.57C2.47 22.43 3.36 22.57 3.51 22.57C3.81 22.57 4.25 22.57 4.55 22.57C4.55 24.32 4.4 26.21 4.4 28.11C3.66 28.11 2.92 27.96 2.18 27.82ZM7.22 38.01C6.77 36.41 6.92 34.66 6.92 33.06C6.63 28.84 6.63 24.47 6.63 20.1C6.63 17.62 6.33 14.56 6.92 12.09C7.66 9.17 10.48 9.46 13.3 9.46C13.15 14.27 13.6 19.08 13.6 23.74C13.45 29.56 13.15 35.54 13.45 41.36C10.18 41.51 8.26 41.65 7.22 38.01ZM28.13 43.84C27.98 46.02 28.28 47.63 25.9 48.21C24.57 48.5 22.64 48.21 21.31 48.21C18.79 48.21 16.41 47.04 15.67 44.57C15.23 42.67 15.67 39.91 15.67 38.01C15.67 33.35 15.52 28.69 15.67 24.03C15.67 20.97 15.67 17.91 15.52 14.85C15.52 12.38 15.67 10.05 15.67 7.57C15.67 3.49 18.34 2.62 22.05 2.62C23.83 2.62 26.2 3.49 27.24 5.09C27.83 5.97 27.54 8.3 27.54 9.46C27.68 11.79 27.68 14.27 27.83 16.6C27.98 21.12 28.13 25.78 28.13 30.29C28.28 34.66 28.43 39.32 28.13 43.84ZM30.35 27.96C30.35 26.21 30.35 24.47 30.35 22.72C34.95 22.57 39.7 22.57 44.44 22.43C49.93 22.43 55.71 23.01 61.05 22.57C61.05 24.32 61.05 26.07 61.05 27.82C50.82 28.4 40.44 27.96 30.35 27.96ZM75.58 14.27C75.44 17.33 75.44 20.39 75.44 23.45C75.58 27.82 75.44 32.19 75.44 36.56C75.44 41.36 76.92 47.63 69.95 47.77C68.76 47.77 66.69 48.21 65.5 47.77C62.39 46.46 62.98 43.99 62.83 41.51C62.68 37.14 62.68 32.91 62.83 28.54C62.83 24.03 62.98 19.66 63.13 15.14C63.28 10.34 61.79 2.03 68.91 2.03C73.06 2.03 74.69 3.49 75.44 7.72C75.88 9.9 75.73 12.23 75.58 14.27ZM84.19 33.5C84.19 34.95 84.33 36.7 83.89 38.01C83 41.36 80.77 41.22 77.81 41.22C77.81 39.03 77.51 36.85 77.66 34.81C77.66 31.02 77.66 27.23 77.66 23.45C77.51 18.64 77.96 13.98 77.81 9.17C79.14 9.17 80.48 9.17 81.66 9.46C84.04 10.05 84.04 10.34 84.19 12.81C84.48 16.02 84.19 19.37 84.33 22.43C84.33 26.36 84.33 29.86 84.19 33.5ZM86.56 28.25C86.41 26.36 86.41 24.47 86.41 22.72C86.41 22.57 86.41 22.43 86.41 22.43C86.86 22.43 87.3 22.43 87.89 22.43C88.63 22.43 88.63 22.28 88.78 22.86C88.93 23.3 88.78 24.03 88.78 24.47C88.78 25.05 88.93 25.63 88.93 26.21C88.93 26.65 88.93 27.09 88.93 27.67C88.93 27.67 88.93 27.96 88.93 28.11L88.78 28.11C87.89 28.11 87.3 28.11 86.56 28.25Z" fill="#2B3541" fill-opacity="1.000000" fill-rule="nonzero"/>
	<path d="M17.9 7.28C16.86 9.61 17.15 12.52 17.45 15C17.6 16.31 19.68 16.31 19.53 15C19.23 12.81 18.93 10.05 19.82 7.86C20.42 6.55 18.34 6.11 17.9 7.28Z" fill="#2B3541" fill-opacity="1.000000" fill-rule="nonzero"/>
	<path d="M20.71 4.22C19.38 4.22 19.38 6.26 20.71 6.26C22.05 6.26 22.05 4.22 20.71 4.22Z" fill="#2B3541" fill-opacity="1.000000" fill-rule="nonzero"/>
	<path d="M65.8 6.4C65.06 7.42 65.06 8.88 64.91 10.05C64.76 11.5 64.61 12.96 64.76 14.42C64.91 15.73 66.98 15.73 66.83 14.42C66.69 13.25 66.83 11.94 66.83 10.77C66.98 9.75 66.98 8.3 67.58 7.42C68.32 6.26 66.54 5.24 65.8 6.4Z" fill="#2B3541" fill-opacity="1.000000" fill-rule="nonzero"/>
	<path d="M68.76 3.78C67.43 3.78 67.43 5.82 68.76 5.82C70.1 5.82 70.1 3.78 68.76 3.78Z" fill="#2B3541" fill-opacity="1.000000" fill-rule="nonzero"/>
</svg>
