<svg width="65.000000" height="61.000000" viewBox="0 0 65 61" fill="none" xmlns="http://www.w3.org/2000/svg" xmlns:xlink="http://www.w3.org/1999/xlink">
	<desc>
			Created with Pixso.
	</desc>
	<defs/>
	<rect rx="-0.500000" width="64.000000" height="60.000000" transform="translate(0.500000 0.500000)" fill="#FFFFFF" fill-opacity="0"/>
	<path d="M50.1 0.35C42.93 -0.78 35.19 3.15 32.72 10.14C31.47 6.8 28.88 4.02 25.85 2.28C20.79 -0.63 15.83 -0.67 10.42 1.66C6.23 3.49 2.97 8.25 1.23 12.41C-0.96 17.65 0.16 24.09 1.52 29.4C1.78 30.4 3.25 29.97 3.01 28.97C0.73 20.1 1.1 10.31 8.95 4.36C12.63 1.58 18.97 0.58 23.07 2.51C27.37 4.53 31.62 8.5 31.95 13.66C32.01 14.68 33.4 14.68 33.48 13.66C34.29 4.19 45.54 -0.87 53.43 3C61.81 7.1 65.36 18.72 62.6 27.51C60.87 33.05 53.94 31.67 49.4 31.71C46.81 31.73 44.23 31.75 41.66 31.73C41.31 31.73 39.88 31.73 39.93 31.75C39.51 31.5 38.48 28.31 38.24 27.68C37.91 26.81 36.84 27 36.73 27.89C36.22 32.01 35.17 36.02 34.36 40.08C33.55 33.26 33.22 26.38 32.12 19.61C31.99 18.82 30.81 18.88 30.63 19.61C29.58 24.34 28.51 29.08 27.45 33.81C26.97 31.61 26.51 29.42 26.03 27.21C25.88 26.49 24.67 26.42 24.54 27.21C24.36 28.29 24.1 31.27 23.4 31.8C22.92 32.16 21.07 31.78 20.44 31.78C17.63 31.75 14.85 31.73 12.04 31.71C8.99 31.69 4.19 31.05 4.33 35.79C4.39 38.27 6.63 40.78 8.05 42.61C10.11 45.26 12.57 47.55 15.16 49.64C20.48 53.95 26.42 57.26 32.19 60.89C32.43 61.04 32.74 61.02 32.96 60.89C43.39 55.01 51.79 47.41 59.2 37.83C59.81 37.04 58.74 35.9 58.1 36.7C53.21 43.03 47.8 49.04 41.31 53.67C39.25 55.16 34.73 59.38 32.15 59.02C30.94 58.85 29.27 57.26 28.22 56.62C26.6 55.62 25 54.65 23.4 53.61C19.89 51.33 16.45 48.91 13.38 46.07C11.54 44.35 2.29 35.22 8.38 33.28C10.68 32.54 14.43 33.33 16.84 33.35C19.23 33.37 21.62 33.39 24.01 33.39C24.36 33.39 24.65 33.13 24.76 32.82C24.93 32.22 25.11 31.61 25.28 31.01C25.77 33.22 26.23 35.43 26.71 37.62C26.86 38.38 28.02 38.38 28.2 37.62C29.21 33.11 30.22 28.61 31.23 24.11C32.1 31.18 32.41 38.32 33.55 45.35C33.7 46.3 34.97 45.94 35.06 45.13C35.65 40.33 36.97 35.68 37.82 30.95C38.35 32.14 39.07 33.07 40.48 33.3C43.96 33.9 48.06 33.3 51.59 33.28C54.84 33.26 59.16 34.01 61.85 31.75C64.2 29.8 64.68 26.32 64.92 23.43C65.69 13.6 60.45 1.96 50.1 0.35Z" fill="#2B3541" fill-opacity="1.000000" fill-rule="nonzero"/>
</svg>
