<svg width="67.000000" height="107.000000" viewBox="0 0 67 107" fill="none" xmlns="http://www.w3.org/2000/svg" xmlns:xlink="http://www.w3.org/1999/xlink">
	<desc>
			Created with Pixso.
	</desc>
	<defs/>
	<rect rx="-0.500000" width="66.000000" height="106.000000" transform="translate(0.500000 0.500000)" fill="#FFFFFF" fill-opacity="0"/>
	<path d="M60.63 65.74C62.52 55.06 64.21 44.29 64.36 33.42C64.45 25.16 63.88 15.84 58.31 9.21C53.97 4.03 47.65 1.43 41.21 1.13C31.4 -1.78 23.69 1.16 15.8 7.18C8.64 12.66 5.06 19.56 4.3 28.55C3.28 40.8 4.87 53.52 6.89 65.62C4.21 65.8 1.05 66.35 0.21 68.56C-0.24 69.77 0.09 72.83 0.57 73.92C1.35 75.64 3.01 75.55 3.85 76.85C5.15 78.88 3.94 84.69 3.7 86.78C3.34 89.93 3.16 92.98 3.49 96.13C3.91 99.98 4.39 105.54 8.91 106.63C22.39 109.87 17.97 90.44 16.16 83.84C15.8 82.51 15.23 81.18 15.02 79.79C14.18 74.76 14.9 76.31 16.4 73.4C17.25 71.8 17.43 70.86 17.16 68.86C16.49 64.38 13.48 65.44 9.54 65.47C9.48 65.47 9.39 65.47 9.3 65.47C8.04 57.94 7.16 50.37 6.77 42.74C6.41 35.93 5.9 28.49 7.86 21.86C7.92 21.65 8.01 21.49 8.07 21.28C6.23 28.46 6.77 36.42 9.78 43.2C15.98 57.12 32.12 59.96 45.21 54.33C51.44 51.67 57.28 47.86 59.51 41.14C61.95 33.75 62.31 23.89 59.21 16.68C57.74 13.26 55.45 10.24 52.71 7.72C55.36 9.54 57.58 11.9 59 14.84C62.58 22.31 62.19 31.18 61.71 39.23C61.2 48.07 59.75 56.79 58.22 65.47L58.22 65.5C54.94 65.2 51.38 65.08 50.36 68.5C49.91 69.95 49.64 72.31 50.3 73.7C51.5 76.19 52.62 75.01 52.71 78.06C52.95 84.66 43.53 105.51 55.78 106.66C67.67 107.78 64.84 90.99 63.82 83.54C63.52 81.42 62.76 78.37 64 76.31C64.48 75.52 65.56 75.16 66.01 74.37C66.83 73.07 67.07 71.07 66.98 69.59C66.83 65.8 63.82 66.05 60.63 65.74ZM14.57 68.04C16.31 69.44 14.03 72.28 13.42 73.43C12.22 75.76 11.86 75.73 12.31 78.64C13.12 83.87 14.78 88.81 15.47 94.13C15.8 96.59 16.95 100.04 15.35 102.31C13.82 104.52 10.99 104.73 8.91 103.58C4.81 101.34 5.51 92.89 5.9 88.72C6.23 85.05 7.49 80.36 6.29 76.73C5.6 74.64 5.33 75.64 3.94 74.04C-0.24 69.1 5.66 68.14 9.54 67.95C10.71 67.92 13.6 67.26 14.57 68.04ZM35.79 3.7C38.29 4.03 40.79 4.76 43.23 6C50.9 9.9 55.3 16.11 54.64 24.98C54.06 33 50.36 41.41 42.14 43.98C35.25 46.13 24.29 45.86 20.05 38.96C16.52 33.21 16.83 24.07 19.02 17.95C21.67 10.57 28.05 4.76 35.79 3.7ZM57.68 38.84C54.12 52.18 37.15 56.21 25.28 53.67C11.41 50.67 7.19 33.6 10.53 21.28C12.97 12.35 19.87 5.94 27.96 4.03C24.71 5.73 21.85 8.15 19.72 11.26C11.77 22.92 13 44.19 29.23 46.98C36.48 48.22 45.03 47.16 50.42 41.68C55.78 36.23 57.86 27.25 56.95 19.8C56.86 18.98 56.68 18.17 56.47 17.41C59.27 23.86 59.63 31.51 57.68 38.84ZM62.76 74.19C60.93 76.76 60.78 77.15 61.08 80.79C61.47 85.24 65.5 106.03 56.26 104.27C47.41 102.58 54.91 83.78 55.18 78.09C55.27 76 55.09 75.73 54.36 74.22C53.64 72.74 50.96 70.31 53.01 68.29C53.94 67.35 58.58 68.01 59.84 68.14C64.81 68.77 65.44 70.44 62.76 74.19Z" fill="#2B3541" fill-opacity="1.000000" fill-rule="nonzero"/>
</svg>
