<svg width="58.000000" height="66.000000" viewBox="0 0 58 66" fill="none" xmlns="http://www.w3.org/2000/svg" xmlns:xlink="http://www.w3.org/1999/xlink">
	<desc>
			Created with Pixso.
	</desc>
	<defs/>
	<rect rx="-0.500000" width="57.000000" height="65.000000" transform="translate(0.500000 0.500000)" fill="#FFFFFF" fill-opacity="0"/>
	<path d="M57.53 39.08C56.85 35.27 54.75 31.38 51.99 28.49C54.23 24.67 56.72 21.47 57.18 16.82C57.56 12.86 56.89 8.02 54.29 4.87C51.75 1.77 48.3 0.81 44.48 0.55C39.4 0.19 34.25 0.1 29.15 0.16C21.37 0.25 11.26 -1.43 4.88 4.21C1.8 6.94 0.29 11.44 0.02 15.45C-0.34 20.75 3.26 24.73 5.91 28.92C3.37 32.27 1.74 36.33 0.9 40.46C-0.27 46.25 0.01 50.69 2.37 56.19C3.61 59.12 5.85 62.68 8.53 64.51C10.37 65.76 12.64 65.72 14.78 65.8C21.34 66.06 27.92 65.99 34.48 65.89C38.71 65.81 43.92 66.46 48.06 65.27C52.14 64.12 54.2 59.37 55.77 55.79C57.99 50.72 58.49 44.49 57.53 39.08ZM8.72 3.72C14.58 0.73 22.72 1.94 29.15 1.86C32.38 1.82 35.62 1.85 38.85 2C43.31 2.2 48.53 1.74 52.07 5.01C54.99 7.71 55.8 12.36 55.54 16.18C55.23 20.67 52.86 23.71 50.71 27.28C50.44 27.04 50.16 26.79 49.87 26.58C48.14 25.26 46.43 24.18 44.68 23.29C47.15 19.4 50.91 13.78 45.81 10.16C40.81 6.6 31.95 8.08 26.29 8.12C23.8 8.15 21.38 8.37 18.92 8.64C16.48 8.91 13.3 8.81 11.26 10.36C6.22 14.18 9.11 19.64 12.03 23.55C11.52 23.84 11 24.14 10.51 24.47C9.22 25.36 8.08 26.39 7.06 27.53C4.63 23.8 1.62 20.24 1.8 15.56C2 10.68 4.31 5.98 8.72 3.72ZM29.41 19.84C24.03 19.89 18.46 20.44 13.57 22.74C11.5 20.07 8.87 16.59 11.09 13.18C12.83 10.52 15.8 10.68 18.52 10.39C21.58 10.07 24.55 9.84 27.63 9.83C31.89 9.81 36.4 9.52 40.65 10.13C43.66 10.56 46.29 11.83 46.45 15.35C46.57 18.15 44.54 20.29 43.11 22.54C38.92 20.69 34.54 19.9 29.41 19.84ZM56.15 46.21C55.95 51.15 54.33 55.75 51.73 59.92C48.58 64.97 42.49 63.99 37.3 64.09C31.1 64.23 24.89 64.29 18.69 64.17C14.61 64.09 10.95 64.45 7.77 61.36C4.86 58.54 3.43 54.55 2.29 50.75C0.29 44.12 3.46 34.47 7.71 29.34C13.05 22.86 21.54 21.62 29.41 21.56C37.08 21.65 44.65 23.58 50.34 29.14C54.94 33.6 56.39 40.01 56.15 46.21Z" fill="#2B3541" fill-opacity="1.000000" fill-rule="nonzero"/>
	<path d="M30.87 30.29C26.41 29.66 22.25 32.25 21.11 36.68C20 41.01 21.67 45.32 26.27 46.25C30.61 47.13 36.64 45.7 37.54 40.72C38.35 36.24 35.35 31.19 30.87 30.29ZM28.01 44.69C18.93 44.34 22.22 30.79 30.41 31.94C33.61 32.59 35.79 35.69 35.94 38.92C36.17 43.52 31.75 44.84 28.01 44.69Z" fill="#2B3541" fill-opacity="1.000000" fill-rule="nonzero"/>
	<path d="M16.22 26.58C11.52 29.17 8.15 33.48 6.74 38.68C6.45 39.75 8.09 40.21 8.38 39.14C9.69 34.35 12.75 30.46 17.09 28.06C18.06 27.53 17.2 26.04 16.22 26.58Z" fill="#2B3541" fill-opacity="1.000000" fill-rule="nonzero"/>
	<path d="M6.6 41.88C5.5 41.88 5.5 43.6 6.6 43.6C7.69 43.6 7.69 41.88 6.6 41.88Z" fill="#2B3541" fill-opacity="1.000000" fill-rule="nonzero"/>
</svg>
