<svg width="32.000000" height="32.000000" viewBox="0 0 32 32" fill="none" xmlns="http://www.w3.org/2000/svg" xmlns:xlink="http://www.w3.org/1999/xlink">
	<desc>
			Created with Pixso.
	</desc>
	<defs>
		<clipPath id="clip2721_2">
			<rect id="favicon" rx="-0.500000" width="31.000000" height="31.000000" transform="translate(0.500000 0.500000)" fill="white" fill-opacity="0"/>
		</clipPath>
	</defs>
	<rect id="favicon" rx="-0.500000" width="31.000000" height="31.000000" transform="translate(0.500000 0.500000)" fill="#FBF138" fill-opacity="1.000000"/>
	<g clip-path="url(#clip2721_2)">
		<rect id="logo" rx="-0.500000" width="35.190422" height="10.309507" transform="translate(-0.500000 25.090485) rotate(-45.000000)" fill="#FFFFFF" fill-opacity="0"/>
		<path id="Vector" d="M18.85 9.83C17.66 8.87 16.09 8.63 14.76 9.21C13.42 9.78 12.53 11.07 12.45 12.53C11.57 12.58 10.72 12.94 10.07 13.54C9.29 14.25 8.84 15.21 8.81 16.25C8.78 17.22 9.12 18.18 9.77 18.94C10.09 19.32 10.48 19.64 10.97 19.9L6.28 24.56C6.16 24.68 6.11 24.84 6.16 25.01C6.2 25.18 6.35 25.33 6.52 25.37C6.69 25.42 6.85 25.37 6.97 25.25L12.15 20.09C12.27 19.97 12.31 19.82 12.28 19.67C12.25 19.51 12.12 19.35 11.94 19.29C10.62 18.77 9.79 17.64 9.79 16.35C9.8 15.56 10.12 14.83 10.68 14.3C11.28 13.74 12.1 13.46 12.93 13.52C13.05 13.52 13.18 13.47 13.29 13.37C13.39 13.27 13.44 13.14 13.43 13.01C13.35 11.73 14.01 10.6 15.12 10.1C16.11 9.67 17.3 9.84 18.17 10.54C18.42 10.75 18.74 10.65 18.91 10.45C19.07 10.24 19.05 9.99 18.85 9.83Z" fill="#2A2A2A" fill-opacity="1.000000" fill-rule="nonzero"/>
		<path id="Vector" d="M8.45 29.08L7.62 29.91C7.51 30.01 7.35 30.01 7.26 29.91L1.58 24.24C1.48 24.14 1.49 23.97 1.59 23.88L2.42 23.04C2.52 22.94 2.69 22.94 2.78 23.04L8.45 28.71C8.54 28.81 8.55 28.98 8.45 29.08Z" fill="#2A2A2A" fill-opacity="1.000000" fill-rule="nonzero"/>
		<path id="Vector" d="M6.28 29.83L5.44 30.67C5.34 30.76 5.18 30.77 5.08 30.67L0.81 26.4C0.71 26.3 0.71 26.14 0.81 26.04L1.65 25.2C1.75 25.1 1.91 25.09 2.01 25.19L6.28 29.47C6.38 29.57 6.38 29.72 6.28 29.83Z" fill="#2A2A2A" fill-opacity="1.000000" fill-rule="nonzero"/>
		<path id="Vector" d="M10.52 28.24L9.69 29.07C9.58 29.17 9.42 29.17 9.32 29.07L2.41 22.17C2.31 22.07 2.31 21.9 2.42 21.8L3.25 20.97C3.35 20.86 3.52 20.86 3.62 20.96L10.52 27.87C10.63 27.97 10.62 28.13 10.52 28.24Z" fill="#2A2A2A" fill-opacity="1.000000" fill-rule="nonzero"/>
		<path id="Vector" d="M24.67 6.49C24.51 6.45 24.35 6.49 24.22 6.61L19.34 11.52C19.23 11.63 19.15 11.83 19.21 12C19.88 13.77 19.67 15.81 19.45 17.19C19.35 17.8 19.24 18.39 19.1 18.96L19.08 19.02C19.05 19.1 19.05 19.1 18.99 19.13C18.8 19.22 18.56 19.26 18.34 19.3C18.25 19.32 18.16 19.34 18.08 19.35C17.48 19.48 16.95 19.57 16.44 19.64C15.42 19.77 14.51 19.79 13.62 19.7C13.36 19.67 13.16 19.83 13.13 20.09C13.1 20.35 13.26 20.64 13.58 20.67C14.44 20.76 15.34 20.75 16.35 20.63C16.93 20.56 17.52 20.47 18.11 20.35C18.41 20.29 18.72 20.21 19.04 20.13L19.1 20.11C19.32 20.06 19.58 20 19.76 19.81C19.8 19.78 19.84 19.73 19.87 19.68C19.99 19.49 20.04 19.25 20.08 19.04C20.1 18.98 20.1 18.92 20.12 18.87C20.2 18.53 20.27 18.17 20.34 17.82C20.51 16.82 20.61 15.91 20.63 15.05C20.65 13.85 20.53 12.85 20.26 11.99L24.92 7.31C25.04 7.18 25.08 7.02 25.04 6.86C25 6.68 24.85 6.53 24.67 6.49Z" fill="#2A2A2A" fill-opacity="1.000000" fill-rule="nonzero"/>
		<path id="Vector" d="M29.08 8.45L29.91 7.61C30.02 7.51 30.01 7.35 29.92 7.25L24.24 1.58C24.14 1.48 23.98 1.48 23.88 1.58L23.05 2.42C22.94 2.52 22.95 2.68 23.05 2.78L28.72 8.45C28.81 8.54 28.98 8.55 29.08 8.45Z" fill="#2A2A2A" fill-opacity="1.000000" fill-rule="nonzero"/>
		<path id="Vector" d="M29.83 6.28L30.67 5.44C30.76 5.34 30.77 5.18 30.67 5.08L26.4 0.81C26.3 0.71 26.14 0.71 26.04 0.81L25.2 1.65C25.1 1.75 25.09 1.91 25.19 2.01L29.47 6.28C29.57 6.38 29.72 6.38 29.83 6.28Z" fill="#2A2A2A" fill-opacity="1.000000" fill-rule="nonzero"/>
		<path id="Vector" d="M28.24 10.52L29.07 9.69C29.17 9.58 29.17 9.42 29.07 9.32L22.17 2.41C22.07 2.31 21.9 2.31 21.8 2.42L20.97 3.25C20.86 3.35 20.86 3.52 20.96 3.62L27.87 10.52C27.97 10.63 28.13 10.62 28.24 10.52Z" fill="#2A2A2A" fill-opacity="1.000000" fill-rule="nonzero"/>
	</g>
</svg>
